<svg width="14" height="14" viewBox="0 0 14 14" fill="none" xmlns="http://www.w3.org/2000/svg">
<path d="M3.5 0.4375C3.5 0.321468 3.45391 0.210188 3.37186 0.128141C3.28981 0.0460936 3.17853 0 3.0625 0C2.94647 0 2.83519 0.0460936 2.75314 0.128141C2.67109 0.210188 2.625 0.321468 2.625 0.4375V0.875H1.75C1.28587 0.875 0.840752 1.05937 0.512563 1.38756C0.184374 1.71575 0 2.16087 0 2.625L0 3.5H14V2.625C14 2.16087 13.8156 1.71575 13.4874 1.38756C13.1592 1.05937 12.7141 0.875 12.25 0.875H11.375V0.4375C11.375 0.321468 11.3289 0.210188 11.2469 0.128141C11.1648 0.0460936 11.0535 0 10.9375 0C10.8215 0 10.7102 0.0460936 10.6281 0.128141C10.5461 0.210188 10.5 0.321468 10.5 0.4375V0.875H3.5V0.4375ZM8.22675 8.96525C8.77363 8.96525 9.26275 8.54175 9.26275 7.93275C9.26275 7.20475 8.80162 6.8565 8.24775 6.8565C7.735 6.8565 7.22575 7.19512 7.22575 7.91525C7.22575 8.63012 7.70088 8.96525 8.22675 8.96525Z" fill="#A0A0A1"/>
<path d="M14 12.25V4.375H0V12.25C0 12.7141 0.184374 13.1592 0.512563 13.4874C0.840752 13.8156 1.28587 14 1.75 14H12.25C12.7141 14 13.1592 13.8156 13.4874 13.4874C13.8156 13.1592 14 12.7141 14 12.25ZM8.169 11.1912C7.19775 11.1912 6.72 10.5201 6.67887 9.96013H7.2765C7.31413 10.2839 7.61512 10.6776 8.19613 10.6776C8.93462 10.6776 9.3345 9.93562 9.338 8.78412H9.31437C9.1805 9.14637 8.757 9.47538 8.10425 9.47538C7.35875 9.47538 6.63775 8.94163 6.63775 7.92663C6.63775 6.93175 7.39988 6.34375 8.21012 6.34375C9.23563 6.34375 9.919 6.986 9.919 8.67825C9.919 10.2576 9.26975 11.1904 8.169 11.1904V11.1912ZM5.64025 6.43563V11.1011H5.04875V7.06913H5.03825C4.7845 7.20563 4.26562 7.52412 3.9375 7.749V7.14C4.30574 6.882 4.68941 6.64677 5.08638 6.43563H5.63938H5.64025Z" fill="#A0A0A1"/>
</svg>
