<svg width="17" height="15" viewBox="0 0 17 15" fill="none" xmlns="http://www.w3.org/2000/svg">
<path d="M16.6141 3.27344L14.8228 0.41401C14.6627 0.157324 14.3784 0 14.0748 0H2.92412C2.62051 0 2.33623 0.157324 2.17614 0.41401L0.384856 3.27344C-0.539767 4.75008 0.279974 6.80357 2.00778 7.03818C2.13198 7.05474 2.25894 7.06302 2.38591 7.06302C3.20289 7.06302 3.92603 6.70421 4.42284 6.14944C4.91965 6.70421 5.64555 7.06302 6.45977 7.06302C7.27675 7.06302 7.99989 6.70421 8.4967 6.14944C8.99351 6.70421 9.71941 7.06302 10.5336 7.06302C11.3506 7.06302 12.0738 6.70421 12.5706 6.14944C13.0701 6.70421 13.7933 7.06302 14.6075 7.06302C14.7372 7.06302 14.8614 7.05474 14.9856 7.03818C16.7189 6.80633 17.5414 4.75284 16.6141 3.27344ZM14.613 7.949C14.337 7.949 14.0638 7.9076 13.7988 7.84412V10.5987H3.20013V7.84412C2.93516 7.90484 2.66191 7.949 2.38591 7.949C2.2203 7.949 2.05194 7.93796 1.88909 7.91588C1.73453 7.8938 1.58273 7.85792 1.43644 7.81652V13.2483C1.43644 13.7369 1.83113 14.1316 2.31966 14.1316H14.6848C15.1733 14.1316 15.568 13.7369 15.568 13.2483V7.81652C15.419 7.86068 15.2699 7.89656 15.1153 7.91588C14.947 7.93796 14.7814 7.949 14.613 7.949Z" fill="#474747"/>
</svg>
