<svg width="85" height="80" viewBox="0 0 85 80" fill="none" xmlns="http://www.w3.org/2000/svg">
<path fill-rule="evenodd" clip-rule="evenodd" d="M68.7087 13.1192L65.1934 0C56.6531 4.09372 49.7993 9.89451 45.5528 16.7339C42.4853 21.675 40.7776 27.1577 40.7776 32.9299C40.7776 38.2704 42.2393 43.363 44.8875 48.0078C51.7213 59.9945 66.4581 68.9994 84.3761 71.5905L79.2189 52.3425C66.8215 51.8536 56.1226 47.9786 50.1447 42.3853C35.27 30.1059 53.2309 14.1479 68.7087 13.1192Z" fill="#333333" fill-opacity="0.4"/>
<path fill-rule="evenodd" clip-rule="evenodd" d="M59.0894 15.5136C60.0485 19.0023 60.553 22.6108 60.553 26.3045C60.553 33.7223 58.5235 40.7947 54.8447 47.2465C45.354 63.8947 24.8854 76.4008 0 80L7.16309 53.2665C24.3816 52.5876 39.2414 47.2061 47.5437 39.4373C55.2908 33.042 56.3741 25.3522 53.662 18.3786L53.6899 18.4506C55.3641 17.3182 57.1873 16.3267 59.0894 15.5136Z" fill="#333333" fill-opacity="0.4"/>
</svg>
